<svg xmlns="http://www.w3.org/2000/svg" xmlns:xlink="http://www.w3.org/1999/xlink" width="757" zoomAndPan="magnify" viewBox="0 0 567.75 364.499989" height="486" preserveAspectRatio="xMidYMid meet" version="1.2"><defs><clipPath id="827c120f33"><path d="M 364.707031 34.25 L 430.292969 34.25 L 430.292969 102.421875 L 364.707031 102.421875 Z M 364.707031 34.25 "/></clipPath><clipPath id="ac65b860a9"><path d="M 452.457031 98.886719 C 452.738281 102.527344 425.710938 107.90625 425.171875 111.355469 C 423.734375 120.578125 417.816406 129.835938 410.222656 135.707031 C 403.75 140.710938 396.21875 144.589844 387.265625 145.21875 C 363.980469 146.859375 343.570312 130.875 341.847656 108.738281 C 341.757812 107.617188 286.15625 76.667969 285.863281 75.601562 C 265.027344 -0.722656 361.109375 31.195312 383.21875 29.636719 C 406.5 27.996094 450.730469 76.75 452.457031 98.886719 Z M 452.457031 98.886719 "/></clipPath><clipPath id="88a6187a03"><path d="M 377.015625 58.6875 L 381.976562 58.6875 L 381.976562 59.789062 L 377.015625 59.789062 Z M 377.015625 58.6875 "/></clipPath><clipPath id="91ca39a6af"><path d="M 452.457031 98.886719 C 452.738281 102.527344 425.710938 107.90625 425.171875 111.355469 C 423.734375 120.578125 417.816406 129.835938 410.222656 135.707031 C 403.75 140.710938 396.21875 144.589844 387.265625 145.21875 C 363.980469 146.859375 343.570312 130.875 341.847656 108.738281 C 341.757812 107.617188 286.15625 76.667969 285.863281 75.601562 C 265.027344 -0.722656 361.109375 31.195312 383.21875 29.636719 C 406.5 27.996094 450.730469 76.75 452.457031 98.886719 Z M 452.457031 98.886719 "/></clipPath><clipPath id="d2b97e9acf"><path d="M 376.28125 58.136719 L 382.527344 58.136719 L 382.527344 60.527344 L 376.28125 60.527344 Z M 376.28125 58.136719 "/></clipPath><clipPath id="48ae35f3a9"><path d="M 452.457031 98.886719 C 452.738281 102.527344 425.710938 107.90625 425.171875 111.355469 C 423.734375 120.578125 417.816406 129.835938 410.222656 135.707031 C 403.75 140.710938 396.21875 144.589844 387.265625 145.21875 C 363.980469 146.859375 343.570312 130.875 341.847656 108.738281 C 341.757812 107.617188 286.15625 76.667969 285.863281 75.601562 C 265.027344 -0.722656 361.109375 31.195312 383.21875 29.636719 C 406.5 27.996094 450.730469 76.75 452.457031 98.886719 Z M 452.457031 98.886719 "/></clipPath><clipPath id="ba6508aaf4"><path d="M 388.589844 142.660156 L 414.308594 142.660156 L 414.308594 145.417969 L 388.589844 145.417969 Z M 388.589844 142.660156 "/></clipPath><clipPath id="110bd7dbf8"><path d="M 452.457031 98.886719 C 452.738281 102.527344 425.710938 107.90625 425.171875 111.355469 C 423.734375 120.578125 417.816406 129.835938 410.222656 135.707031 C 403.75 140.710938 396.21875 144.589844 387.265625 145.21875 C 363.980469 146.859375 343.570312 130.875 341.847656 108.738281 C 341.757812 107.617188 286.15625 76.667969 285.863281 75.601562 C 265.027344 -0.722656 361.109375 31.195312 383.21875 29.636719 C 406.5 27.996094 450.730469 76.75 452.457031 98.886719 Z M 452.457031 98.886719 "/></clipPath><clipPath id="17cedabc51"><path d="M 358.640625 139.535156 L 407.878906 139.535156 L 407.878906 145.417969 L 358.640625 145.417969 Z M 358.640625 139.535156 "/></clipPath><clipPath id="effbfc295d"><path d="M 452.457031 98.886719 C 452.738281 102.527344 425.710938 107.90625 425.171875 111.355469 C 423.734375 120.578125 417.816406 129.835938 410.222656 135.707031 C 403.75 140.710938 396.21875 144.589844 387.265625 145.21875 C 363.980469 146.859375 343.570312 130.875 341.847656 108.738281 C 341.757812 107.617188 286.15625 76.667969 285.863281 75.601562 C 265.027344 -0.722656 361.109375 31.195312 383.21875 29.636719 C 406.5 27.996094 450.730469 76.75 452.457031 98.886719 Z M 452.457031 98.886719 "/></clipPath><clipPath id="0e87aac365"><path d="M 293.972656 32.414062 L 316.9375 32.414062 L 316.9375 54.277344 L 293.972656 54.277344 Z M 293.972656 32.414062 "/></clipPath><clipPath id="12002f7a81"><path d="M 452.457031 98.886719 C 452.738281 102.527344 425.710938 107.90625 425.171875 111.355469 C 423.734375 120.578125 417.816406 129.835938 410.222656 135.707031 C 403.75 140.710938 396.21875 144.589844 387.265625 145.21875 C 363.980469 146.859375 343.570312 130.875 341.847656 108.738281 C 341.757812 107.617188 286.15625 76.667969 285.863281 75.601562 C 265.027344 -0.722656 361.109375 31.195312 383.21875 29.636719 C 406.5 27.996094 450.730469 76.75 452.457031 98.886719 Z M 452.457031 98.886719 "/></clipPath><clipPath id="c85c4b93be"><path d="M 293.238281 31.863281 L 317.671875 31.863281 L 317.671875 54.828125 L 293.238281 54.828125 Z M 293.238281 31.863281 "/></clipPath><clipPath id="4c3621d325"><path d="M 452.457031 98.886719 C 452.738281 102.527344 425.710938 107.90625 425.171875 111.355469 C 423.734375 120.578125 417.816406 129.835938 410.222656 135.707031 C 403.75 140.710938 396.21875 144.589844 387.265625 145.21875 C 363.980469 146.859375 343.570312 130.875 341.847656 108.738281 C 341.757812 107.617188 286.15625 76.667969 285.863281 75.601562 C 265.027344 -0.722656 361.109375 31.195312 383.21875 29.636719 C 406.5 27.996094 450.730469 76.75 452.457031 98.886719 Z M 452.457031 98.886719 "/></clipPath><clipPath id="8e88bca479"><path d="M 309.773438 51.339844 L 435.4375 51.339844 L 435.4375 145.417969 L 309.773438 145.417969 Z M 309.773438 51.339844 "/></clipPath><clipPath id="a572232ceb"><path d="M 452.457031 98.886719 C 452.738281 102.527344 425.710938 107.90625 425.171875 111.355469 C 423.734375 120.578125 417.816406 129.835938 410.222656 135.707031 C 403.75 140.710938 396.21875 144.589844 387.265625 145.21875 C 363.980469 146.859375 343.570312 130.875 341.847656 108.738281 C 341.757812 107.617188 286.15625 76.667969 285.863281 75.601562 C 265.027344 -0.722656 361.109375 31.195312 383.21875 29.636719 C 406.5 27.996094 450.730469 76.75 452.457031 98.886719 Z M 452.457031 98.886719 "/></clipPath><clipPath id="acd0dcbdb3"><path d="M 309.039062 50.789062 L 435.988281 50.789062 L 435.988281 145.417969 L 309.039062 145.417969 Z M 309.039062 50.789062 "/></clipPath><clipPath id="b4a91eb299"><path d="M 452.457031 98.886719 C 452.738281 102.527344 425.710938 107.90625 425.171875 111.355469 C 423.734375 120.578125 417.816406 129.835938 410.222656 135.707031 C 403.75 140.710938 396.21875 144.589844 387.265625 145.21875 C 363.980469 146.859375 343.570312 130.875 341.847656 108.738281 C 341.757812 107.617188 286.15625 76.667969 285.863281 75.601562 C 265.027344 -0.722656 361.109375 31.195312 383.21875 29.636719 C 406.5 27.996094 450.730469 76.75 452.457031 98.886719 Z M 452.457031 98.886719 "/></clipPath><clipPath id="5fce34d5de"><path d="M 362.867188 123 L 375.175781 123 L 375.175781 142.476562 L 362.867188 142.476562 Z M 362.867188 123 "/></clipPath><clipPath id="5eacbadb19"><path d="M 452.457031 98.886719 C 452.738281 102.527344 425.710938 107.90625 425.171875 111.355469 C 423.734375 120.578125 417.816406 129.835938 410.222656 135.707031 C 403.75 140.710938 396.21875 144.589844 387.265625 145.21875 C 363.980469 146.859375 343.570312 130.875 341.847656 108.738281 C 341.757812 107.617188 286.15625 76.667969 285.863281 75.601562 C 265.027344 -0.722656 361.109375 31.195312 383.21875 29.636719 C 406.5 27.996094 450.730469 76.75 452.457031 98.886719 Z M 452.457031 98.886719 "/></clipPath><clipPath id="aad5be26d5"><path d="M 361.582031 131.269531 L 366.910156 131.269531 L 366.910156 139.902344 L 361.582031 139.902344 Z M 361.582031 131.269531 "/></clipPath><clipPath id="da74acf353"><path d="M 452.457031 98.886719 C 452.738281 102.527344 425.710938 107.90625 425.171875 111.355469 C 423.734375 120.578125 417.816406 129.835938 410.222656 135.707031 C 403.75 140.710938 396.21875 144.589844 387.265625 145.21875 C 363.980469 146.859375 343.570312 130.875 341.847656 108.738281 C 341.757812 107.617188 286.15625 76.667969 285.863281 75.601562 C 265.027344 -0.722656 361.109375 31.195312 383.21875 29.636719 C 406.5 27.996094 450.730469 76.75 452.457031 98.886719 Z M 452.457031 98.886719 "/></clipPath><clipPath id="56ba9903cb"><path d="M 372.789062 41.234375 L 397 41.234375 L 397 73.570312 L 372.789062 73.570312 Z M 372.789062 41.234375 "/></clipPath><clipPath id="793850672c"><path d="M 452.457031 98.886719 C 452.738281 102.527344 425.710938 107.90625 425.171875 111.355469 C 423.734375 120.578125 417.816406 129.835938 410.222656 135.707031 C 403.75 140.710938 396.21875 144.589844 387.265625 145.21875 C 363.980469 146.859375 343.570312 130.875 341.847656 108.738281 C 341.757812 107.617188 286.15625 76.667969 285.863281 75.601562 C 265.027344 -0.722656 361.109375 31.195312 383.21875 29.636719 C 406.5 27.996094 450.730469 76.75 452.457031 98.886719 Z M 452.457031 98.886719 "/></clipPath><clipPath id="c13a9477c6"><path d="M 372.238281 40.679688 L 397.589844 40.679688 L 397.589844 74.125 L 372.238281 74.125 Z M 372.238281 40.679688 "/></clipPath><clipPath id="d41ce3aa42"><path d="M 452.457031 98.886719 C 452.738281 102.527344 425.710938 107.90625 425.171875 111.355469 C 423.734375 120.578125 417.816406 129.835938 410.222656 135.707031 C 403.75 140.710938 396.21875 144.589844 387.265625 145.21875 C 363.980469 146.859375 343.570312 130.875 341.847656 108.738281 C 341.757812 107.617188 286.15625 76.667969 285.863281 75.601562 C 265.027344 -0.722656 361.109375 31.195312 383.21875 29.636719 C 406.5 27.996094 450.730469 76.75 452.457031 98.886719 Z M 452.457031 98.886719 "/></clipPath></defs><g id="eb75b850ce"><path style=" stroke:none;fill-rule:nonzero;fill:#caddff;fill-opacity:1;" d="M 212.738281 52.070312 C 166.949219 78.691406 113.882812 135.929688 119.308594 201.144531 C 121.648438 229.238281 134.679688 249.109375 143.78125 263.847656 C 149.773438 273.554688 210.238281 364 300.496094 359.09375 C 398.472656 353.769531 469.59375 239.582031 452.746094 212.773438 C 445.734375 201.609375 422.113281 209.769531 412.316406 196.484375 C 392.238281 169.261719 466.824219 115.886719 453.824219 75.917969 C 438.386719 28.421875 302.324219 -0.0078125 212.738281 52.070312 "/><path style=" stroke:none;fill-rule:nonzero;fill:#000000;fill-opacity:1;" d="M 277.554688 32.253906 C 277.257812 32.253906 276.964844 32.316406 276.683594 32.441406 C 275.585938 32.9375 275.089844 34.253906 275.574219 35.378906 C 275.8125 35.925781 276.242188 36.347656 276.789062 36.558594 C 277.320312 36.765625 277.902344 36.75 278.421875 36.515625 C 279.523438 36.023438 280.023438 34.707031 279.539062 33.578125 C 279.300781 33.03125 278.871094 32.613281 278.324219 32.398438 C 278.074219 32.304688 277.8125 32.253906 277.554688 32.253906 Z M 277.554688 37.921875 C 277.148438 37.921875 276.738281 37.84375 276.347656 37.691406 C 275.496094 37.359375 274.824219 36.710938 274.457031 35.863281 C 273.710938 34.128906 274.488281 32.097656 276.1875 31.332031 C 277.007812 30.964844 277.925781 30.9375 278.761719 31.265625 C 279.617188 31.597656 280.289062 32.25 280.652344 33.097656 C 281.402344 34.832031 280.625 36.863281 278.921875 37.625 C 278.484375 37.824219 278.019531 37.921875 277.554688 37.921875 "/><path style=" stroke:none;fill-rule:nonzero;fill:#000000;fill-opacity:1;" d="M 394.066406 340.835938 C 393.910156 340.835938 393.753906 340.777344 393.636719 340.65625 C 393.398438 340.417969 393.398438 340.03125 393.636719 339.796875 L 443.136719 290.292969 C 443.371094 290.054688 443.757812 290.054688 443.992188 290.292969 C 444.230469 290.53125 444.230469 290.914062 443.992188 291.152344 L 394.496094 340.65625 C 394.378906 340.777344 394.222656 340.835938 394.066406 340.835938 "/><path style=" stroke:none;fill-rule:nonzero;fill:#000000;fill-opacity:1;" d="M 266.320312 37.652344 C 265.984375 37.652344 265.710938 37.382812 265.710938 37.046875 L 265.710938 33.898438 C 265.710938 33.5625 265.984375 33.289062 266.320312 33.289062 C 266.65625 33.289062 266.929688 33.5625 266.929688 33.898438 L 266.929688 37.046875 C 266.929688 37.382812 266.65625 37.652344 266.320312 37.652344 "/><path style=" stroke:none;fill-rule:nonzero;fill:#000000;fill-opacity:1;" d="M 266.320312 44.984375 C 265.984375 44.984375 265.710938 44.714844 265.710938 44.378906 L 265.710938 41.230469 C 265.710938 40.894531 265.984375 40.621094 266.320312 40.621094 C 266.65625 40.621094 266.929688 40.894531 266.929688 41.230469 L 266.929688 44.378906 C 266.929688 44.714844 266.65625 44.984375 266.320312 44.984375 "/><path style=" stroke:none;fill-rule:nonzero;fill:#000000;fill-opacity:1;" d="M 264.230469 39.746094 L 261.082031 39.746094 C 260.746094 39.746094 260.476562 39.472656 260.476562 39.136719 C 260.476562 38.800781 260.746094 38.527344 261.082031 38.527344 L 264.230469 38.527344 C 264.566406 38.527344 264.839844 38.800781 264.839844 39.136719 C 264.839844 39.472656 264.566406 39.746094 264.230469 39.746094 "/><path style=" stroke:none;fill-rule:nonzero;fill:#000000;fill-opacity:1;" d="M 271.558594 39.746094 L 268.414062 39.746094 C 268.078125 39.746094 267.804688 39.472656 267.804688 39.136719 C 267.804688 38.800781 268.078125 38.527344 268.414062 38.527344 L 271.558594 38.527344 C 271.898438 38.527344 272.167969 38.800781 272.167969 39.136719 C 272.167969 39.472656 271.898438 39.746094 271.558594 39.746094 "/><path style=" stroke:none;fill-rule:nonzero;fill:#ffffff;fill-opacity:1;" d="M 306.832031 142.410156 C 306.832031 172.386719 282.535156 196.6875 252.5625 196.6875 C 222.589844 196.6875 198.292969 172.386719 198.292969 142.410156 C 198.292969 112.433594 222.589844 88.132812 252.5625 88.132812 C 282.535156 88.132812 306.832031 112.433594 306.832031 142.410156 "/><path style=" stroke:none;fill-rule:nonzero;fill:#ffffff;fill-opacity:1;" d="M 307.539062 140.796875 C 307.539062 169.882812 283.964844 193.460938 254.882812 193.460938 C 225.800781 193.460938 202.226562 169.882812 202.226562 140.796875 C 202.226562 111.710938 225.800781 88.132812 254.882812 88.132812 C 283.964844 88.132812 307.539062 111.710938 307.539062 140.796875 "/><path style=" stroke:none;fill-rule:nonzero;fill:#000000;fill-opacity:1;" d="M 254.882812 88.742188 C 226.183594 88.742188 202.832031 112.09375 202.832031 140.800781 C 202.832031 169.503906 226.183594 192.855469 254.882812 192.855469 C 283.582031 192.855469 306.933594 169.503906 306.933594 140.800781 C 306.933594 112.09375 283.582031 88.742188 254.882812 88.742188 Z M 254.882812 194.070312 C 225.511719 194.070312 201.617188 170.171875 201.617188 140.800781 C 201.617188 111.421875 225.511719 87.523438 254.882812 87.523438 C 284.253906 87.523438 308.148438 111.421875 308.148438 140.800781 C 308.148438 170.171875 284.253906 194.070312 254.882812 194.070312 "/><path style=" stroke:none;fill-rule:nonzero;fill:#000000;fill-opacity:1;" d="M 255 189.113281 C 241.183594 189.113281 228.011719 183.160156 218.871094 172.78125 C 218.652344 172.527344 218.675781 172.144531 218.925781 171.921875 C 219.179688 171.699219 219.5625 171.726562 219.785156 171.976562 C 228.695312 182.09375 241.53125 187.898438 255 187.898438 C 263.546875 187.898438 271.910156 185.578125 279.191406 181.1875 C 279.476562 181.015625 279.851562 181.105469 280.027344 181.394531 C 280.199219 181.683594 280.105469 182.054688 279.820312 182.230469 C 272.351562 186.734375 263.769531 189.113281 255 189.113281 "/><path style=" stroke:none;fill-rule:nonzero;fill:#000000;fill-opacity:1;" d="M 287.050781 176.679688 C 286.882812 176.679688 286.71875 176.613281 286.601562 176.484375 C 286.375 176.234375 286.390625 175.847656 286.636719 175.621094 C 292.203125 170.535156 296.503906 164.125 299.078125 157.082031 C 299.191406 156.765625 299.539062 156.601562 299.855469 156.71875 C 300.171875 156.832031 300.335938 157.183594 300.21875 157.496094 C 297.578125 164.726562 293.167969 171.300781 287.460938 176.519531 C 287.34375 176.628906 287.195312 176.679688 287.050781 176.679688 "/><path style=" stroke:none;fill-rule:nonzero;fill:#000000;fill-opacity:1;" d="M 293.769531 114.101562 C 293.578125 114.101562 293.390625 114.015625 293.273438 113.847656 C 284.476562 101.460938 270.167969 94.066406 255 94.066406 C 244.453125 94.066406 234.488281 97.488281 226.1875 103.957031 C 225.921875 104.164062 225.539062 104.117188 225.332031 103.855469 C 225.125 103.585938 225.175781 103.207031 225.4375 103 C 233.957031 96.359375 244.179688 92.851562 255 92.851562 C 270.5625 92.851562 285.242188 100.433594 294.265625 113.140625 C 294.457031 113.414062 294.394531 113.796875 294.121094 113.988281 C 294.015625 114.066406 293.890625 114.101562 293.769531 114.101562 "/><path style=" stroke:none;fill-rule:nonzero;fill:#000000;fill-opacity:1;" d="M 209.472656 155.242188 C 209.210938 155.242188 208.96875 155.070312 208.890625 154.804688 C 207.554688 150.339844 206.875 145.6875 206.875 140.984375 C 206.875 133.84375 208.398438 126.972656 211.410156 120.5625 C 211.550781 120.257812 211.914062 120.125 212.21875 120.269531 C 212.523438 120.410156 212.652344 120.773438 212.511719 121.078125 C 209.578125 127.328125 208.09375 134.027344 208.09375 140.984375 C 208.09375 145.570312 208.753906 150.101562 210.054688 154.457031 C 210.152344 154.777344 209.96875 155.117188 209.644531 155.214844 C 209.589844 155.230469 209.527344 155.242188 209.472656 155.242188 "/><path style=" stroke:none;fill-rule:nonzero;fill:#5479f7;fill-opacity:1;" d="M 218.6875 152.3125 L 218.6875 150.894531 C 218.6875 144.941406 221.066406 143.824219 227.765625 139.691406 C 230.78125 137.832031 231.898438 136.902344 231.898438 135.1875 C 231.898438 133.179688 230.410156 132.175781 226.6875 132.175781 C 224.675781 132.175781 222.257812 132.546875 219.839844 133.105469 L 218.945312 128.789062 C 221.699219 127.929688 225.011719 127.519531 227.320312 127.519531 C 233.832031 127.519531 237.253906 130.460938 237.253906 134.964844 C 237.253906 138.425781 235.132812 140.4375 231.191406 143.003906 C 228.101562 145.015625 225.308594 146.503906 224.976562 147.65625 L 237.367188 147.65625 L 237.367188 152.3125 L 218.6875 152.3125 "/><path style=" stroke:none;fill-rule:nonzero;fill:#5479f7;fill-opacity:1;" d="M 251.6875 133.699219 L 244.242188 142.632812 L 251.6875 142.632812 Z M 256.820312 147.023438 L 256.820312 152.3125 L 251.6875 152.3125 L 251.6875 147.023438 L 239.144531 147.023438 L 239.144531 142.335938 L 251.054688 127.894531 L 256.820312 127.894531 L 256.820312 142.632812 L 260.355469 142.632812 L 260.355469 147.023438 L 256.820312 147.023438 "/><path style=" stroke:none;fill-rule:nonzero;fill:#5479f7;fill-opacity:1;" d="M 264.152344 153.289062 L 260.15625 153.289062 L 268.46875 126.839844 L 272.484375 126.839844 L 264.152344 153.289062 "/><path style=" stroke:none;fill-rule:nonzero;fill:#5479f7;fill-opacity:1;" d="M 291.089844 130.914062 L 281.988281 152.261719 L 276.03125 152.261719 L 285.148438 132.253906 L 273.539062 132.253906 L 273.539062 127.902344 L 291.089844 127.902344 L 291.089844 130.914062 "/><path style=" stroke:none;fill-rule:nonzero;fill:#99b9ff;fill-opacity:1;" d="M 170.253906 195.226562 C 173.613281 200.859375 171.773438 208.148438 166.140625 211.511719 C 160.507812 214.871094 153.21875 213.03125 149.859375 207.398438 C 146.496094 201.765625 148.339844 194.472656 153.96875 191.113281 C 159.601562 187.75 166.894531 189.59375 170.253906 195.226562 Z M 149.808594 179.632812 L 145.847656 182 L 147.414062 186.785156 C 146.59375 187.5 145.84375 188.269531 145.167969 189.089844 L 140.34375 187.664062 L 138.09375 191.691406 L 141.847656 195.058594 C 141.5 196.070312 141.234375 197.113281 141.058594 198.171875 L 136.160156 199.347656 L 136.226562 203.964844 L 141.152344 205 C 141.355469 206.042969 141.648438 207.074219 142.03125 208.089844 L 138.378906 211.5625 L 140.746094 215.523438 L 145.535156 213.957031 C 146.246094 214.777344 147.015625 215.527344 147.835938 216.199219 L 146.410156 221.027344 L 150.4375 223.277344 L 153.800781 219.523438 C 154.816406 219.871094 155.855469 220.136719 156.914062 220.3125 L 158.09375 225.210938 L 162.707031 225.144531 L 163.742188 220.21875 C 164.785156 220.015625 165.820312 219.71875 166.835938 219.335938 L 170.304688 222.992188 L 174.265625 220.625 L 172.699219 215.835938 C 173.519531 215.125 174.269531 214.355469 174.941406 213.535156 L 179.769531 214.960938 L 182.019531 210.933594 L 178.265625 207.566406 C 178.613281 206.550781 178.875 205.511719 179.050781 204.453125 L 183.953125 203.273438 L 183.886719 198.660156 L 178.960938 197.625 C 178.757812 196.582031 178.460938 195.546875 178.078125 194.535156 L 181.730469 191.0625 L 179.367188 187.097656 L 174.578125 188.667969 C 173.867188 187.847656 173.097656 187.097656 172.277344 186.421875 L 173.703125 181.597656 L 169.675781 179.347656 L 166.3125 183.097656 C 165.296875 182.753906 164.253906 182.488281 163.199219 182.3125 L 162.019531 177.410156 L 157.40625 177.480469 L 156.367188 182.40625 C 155.328125 182.609375 154.292969 182.902344 153.277344 183.285156 L 149.808594 179.632812 "/><path style=" stroke:none;fill-rule:nonzero;fill:#99b9ff;fill-opacity:1;" d="M 169.699219 197.425781 C 173.058594 203.058594 171.21875 210.351562 165.585938 213.710938 C 159.953125 217.074219 152.664062 215.234375 149.300781 209.597656 C 145.941406 203.964844 147.78125 196.675781 153.414062 193.3125 C 159.046875 189.953125 166.335938 191.792969 169.699219 197.425781 Z M 149.253906 181.835938 L 145.289062 184.199219 L 146.855469 188.988281 C 146.039062 189.699219 145.285156 190.46875 144.613281 191.289062 L 139.789062 189.863281 L 137.539062 193.890625 L 141.289062 197.257812 C 140.941406 198.269531 140.679688 199.3125 140.503906 200.371094 L 135.605469 201.550781 L 135.671875 206.164062 L 140.59375 207.199219 C 140.796875 208.242188 141.09375 209.277344 141.476562 210.292969 L 137.824219 213.761719 L 140.1875 217.722656 L 144.976562 216.15625 C 145.691406 216.976562 146.457031 217.726562 147.277344 218.402344 L 145.851562 223.230469 L 149.882812 225.476562 L 153.246094 221.722656 C 154.261719 222.074219 155.300781 222.335938 156.359375 222.511719 L 157.539062 227.410156 L 162.152344 227.34375 L 163.1875 222.421875 C 164.230469 222.214844 165.261719 221.921875 166.277344 221.539062 L 169.75 225.191406 L 173.710938 222.828125 L 172.144531 218.035156 C 172.960938 217.324219 173.714844 216.558594 174.386719 215.734375 L 179.214844 217.164062 L 181.460938 213.132812 L 177.710938 209.769531 C 178.058594 208.753906 178.320312 207.710938 178.496094 206.65625 L 183.394531 205.476562 L 183.328125 200.863281 L 178.40625 199.824219 C 178.203125 198.78125 177.90625 197.75 177.523438 196.734375 L 181.175781 193.261719 L 178.8125 189.300781 L 174.023438 190.867188 C 173.3125 190.046875 172.542969 189.296875 171.722656 188.625 L 173.148438 183.796875 L 169.121094 181.546875 L 165.753906 185.300781 C 164.742188 184.953125 163.699219 184.691406 162.644531 184.515625 L 161.464844 179.613281 L 156.851562 179.679688 L 155.8125 184.605469 C 154.769531 184.808594 153.738281 185.101562 152.722656 185.488281 L 149.253906 181.835938 "/><path style=" stroke:none;fill-rule:nonzero;fill:#ffffff;fill-opacity:1;" d="M 139.957031 130.0625 C 146.433594 119.722656 160.066406 116.59375 170.402344 123.070312 C 180.742188 129.546875 183.871094 143.179688 177.394531 153.519531 C 170.917969 163.859375 157.285156 166.992188 146.949219 160.511719 C 136.609375 154.035156 133.480469 140.402344 139.957031 130.0625 "/><path style=" stroke:none;fill-rule:nonzero;fill:#000000;fill-opacity:1;" d="M 140.472656 130.386719 C 134.183594 140.425781 137.234375 153.707031 147.273438 159.996094 C 152.132812 163.042969 157.890625 164.011719 163.484375 162.730469 C 169.074219 161.445312 173.832031 158.058594 176.878906 153.199219 C 179.925781 148.335938 180.898438 142.574219 179.609375 136.984375 C 178.328125 131.390625 174.941406 126.632812 170.078125 123.585938 C 160.042969 117.296875 146.761719 120.347656 140.472656 130.386719 Z M 158.632812 164.5 C 154.421875 164.5 150.285156 163.320312 146.625 161.027344 C 136.019531 154.382812 132.796875 140.347656 139.441406 129.738281 C 146.085938 119.132812 160.121094 115.910156 170.726562 122.554688 C 175.863281 125.773438 179.441406 130.800781 180.796875 136.710938 C 182.15625 142.621094 181.128906 148.707031 177.910156 153.839844 C 174.691406 158.980469 169.664062 162.558594 163.757812 163.917969 C 162.054688 164.304688 160.335938 164.5 158.632812 164.5 "/><path style=" stroke:none;fill-rule:nonzero;fill:#99b9ff;fill-opacity:1;" d="M 163.527344 156.449219 L 143.472656 143.882812 C 143.039062 143.609375 142.90625 143.039062 143.179688 142.601562 L 152.226562 128.160156 C 152.496094 127.726562 153.070312 127.59375 153.507812 127.863281 L 173.5625 140.433594 C 173.996094 140.703125 174.128906 141.277344 173.855469 141.714844 L 164.8125 156.15625 C 164.539062 156.589844 163.964844 156.71875 163.527344 156.449219 "/><path style=" stroke:none;fill-rule:nonzero;fill:#000000;fill-opacity:1;" d="M 162.898438 155.335938 C 163.574219 155.757812 164.46875 155.554688 164.890625 154.878906 L 172.742188 142.34375 C 173.167969 141.667969 172.960938 140.773438 172.285156 140.351562 L 154.136719 128.976562 C 153.808594 128.773438 153.421875 128.707031 153.046875 128.792969 C 152.667969 128.882812 152.347656 129.109375 152.144531 129.4375 L 144.292969 141.972656 C 143.867188 142.648438 144.074219 143.539062 144.75 143.964844 Z M 163.664062 156.773438 C 163.179688 156.773438 162.691406 156.640625 162.253906 156.367188 L 144.101562 144.996094 C 142.859375 144.214844 142.480469 142.570312 143.261719 141.324219 L 151.113281 128.789062 C 151.492188 128.1875 152.082031 127.765625 152.773438 127.609375 C 153.464844 127.449219 154.179688 127.570312 154.78125 127.945312 L 172.933594 139.316406 C 174.175781 140.097656 174.554688 141.746094 173.777344 142.988281 L 165.921875 155.523438 C 165.417969 156.332031 164.550781 156.773438 163.664062 156.773438 "/><path style=" stroke:none;fill-rule:nonzero;fill:#000000;fill-opacity:1;" d="M 158.15625 143.53125 C 157.925781 143.53125 157.707031 143.398438 157.601562 143.175781 L 153.507812 134.269531 C 153.371094 133.964844 153.503906 133.601562 153.808594 133.460938 C 154.113281 133.320312 154.476562 133.453125 154.613281 133.757812 L 158.707031 142.667969 C 158.847656 142.972656 158.714844 143.332031 158.410156 143.472656 C 158.328125 143.511719 158.242188 143.53125 158.15625 143.53125 "/><path style=" stroke:none;fill-rule:nonzero;fill:#000000;fill-opacity:1;" d="M 158.203125 143.558594 C 157.875 143.558594 157.601562 143.296875 157.59375 142.964844 C 157.589844 142.628906 157.855469 142.347656 158.191406 142.34375 L 167.992188 142.140625 C 168.316406 142.132812 168.605469 142.398438 168.613281 142.734375 C 168.617188 143.070312 168.351562 143.347656 168.015625 143.355469 L 158.214844 143.558594 C 158.210938 143.558594 158.207031 143.558594 158.203125 143.558594 "/><path style=" stroke:none;fill-rule:nonzero;fill:#ffffff;fill-opacity:1;" d="M 195.964844 51.378906 C 194.824219 39.230469 203.746094 28.457031 215.894531 27.316406 C 228.039062 26.179688 238.808594 35.105469 239.949219 47.25 C 241.085938 59.398438 232.164062 70.171875 220.019531 71.3125 C 207.871094 72.449219 197.101562 63.527344 195.964844 51.378906 "/><path style=" stroke:none;fill-rule:nonzero;fill:#000000;fill-opacity:1;" d="M 196.566406 51.320312 C 197.675781 63.117188 208.160156 71.8125 219.960938 70.707031 C 231.753906 69.597656 240.449219 59.101562 239.34375 47.308594 C 238.234375 35.515625 227.753906 26.820312 215.949219 27.925781 C 204.15625 29.03125 195.460938 39.527344 196.566406 51.320312 Z M 217.9375 72.019531 C 206.371094 72.019531 196.460938 63.179688 195.359375 51.4375 C 194.1875 38.972656 203.375 27.882812 215.835938 26.714844 C 228.292969 25.546875 239.382812 34.730469 240.554688 47.195312 C 241.722656 59.65625 232.535156 70.746094 220.074219 71.914062 C 219.359375 71.984375 218.644531 72.019531 217.9375 72.019531 "/><path style=" stroke:none;fill-rule:nonzero;fill:#99b9ff;fill-opacity:1;" d="M 227.113281 58.058594 L 224.1875 54.433594 C 223.941406 54.128906 223.425781 53.890625 223.039062 53.894531 L 222.546875 53.90625 C 222.105469 53.910156 221.671875 54.023438 221.261719 54.191406 C 220.105469 54.667969 218.242188 54.679688 215.800781 50.457031 C 213.378906 46.253906 214.300781 44.644531 215.28125 43.875 C 215.710938 43.542969 216.054688 43.117188 216.335938 42.652344 L 216.445312 42.46875 C 216.644531 42.136719 216.695312 41.570312 216.554688 41.207031 L 214.875 36.859375 C 214.738281 36.496094 214.3125 36.257812 213.929688 36.328125 L 212.847656 36.527344 C 211.9375 36.695312 211.097656 37.148438 210.496094 37.851562 C 207.9375 40.835938 208.367188 46.824219 211.796875 52.769531 C 215.238281 58.726562 220.222656 62.09375 224.089844 61.351562 C 224.984375 61.183594 225.78125 60.691406 226.371094 60 L 227.101562 59.144531 C 227.351562 58.847656 227.359375 58.359375 227.113281 58.058594 "/><path style=" stroke:none;fill-rule:nonzero;fill:#000000;fill-opacity:1;" d="M 214.066406 36.925781 C 214.058594 36.925781 214.046875 36.929688 214.039062 36.929688 L 212.957031 37.128906 C 212.160156 37.273438 211.449219 37.671875 210.957031 38.25 C 208.550781 41.058594 209.113281 46.90625 212.324219 52.46875 C 215.265625 57.5625 219.515625 60.847656 223.003906 60.847656 C 223.335938 60.847656 223.660156 60.816406 223.976562 60.757812 C 224.710938 60.617188 225.398438 60.207031 225.90625 59.605469 L 226.636719 58.75 C 226.695312 58.679688 226.699219 58.519531 226.640625 58.445312 L 223.710938 54.816406 C 223.585938 54.660156 223.253906 54.5 223.046875 54.503906 L 222.558594 54.515625 C 222.226562 54.519531 221.863281 54.601562 221.492188 54.753906 C 219.363281 55.628906 217.332031 54.320312 215.273438 50.761719 C 213.226562 47.214844 213.105469 44.804688 214.90625 43.398438 C 215.246094 43.136719 215.550781 42.777344 215.8125 42.339844 L 215.921875 42.15625 C 216.027344 41.984375 216.058594 41.617188 215.984375 41.425781 L 214.308594 37.078125 C 214.277344 37 214.160156 36.925781 214.066406 36.925781 Z M 222.992188 62.066406 C 219.035156 62.066406 214.46875 58.617188 211.273438 53.074219 C 207.75 46.976562 207.253906 40.703125 210.03125 37.457031 C 210.707031 36.667969 211.667969 36.128906 212.738281 35.929688 L 213.820312 35.730469 C 214.488281 35.609375 215.199219 36.007812 215.445312 36.640625 L 217.121094 40.992188 C 217.328125 41.523438 217.261719 42.296875 216.964844 42.785156 L 216.855469 42.964844 C 216.515625 43.53125 216.113281 44.003906 215.65625 44.359375 C 215.199219 44.714844 213.8125 45.796875 216.328125 50.15625 C 218.851562 54.523438 220.488281 53.851562 221.027344 53.628906 C 221.542969 53.417969 222.050781 53.304688 222.535156 53.296875 L 223.027344 53.285156 C 223.609375 53.285156 224.300781 53.609375 224.660156 54.050781 L 227.585938 57.679688 C 228.011719 58.207031 228.003906 59.023438 227.5625 59.539062 L 226.832031 60.394531 C 226.144531 61.207031 225.210938 61.757812 224.203125 61.953125 C 223.808594 62.027344 223.402344 62.0625 222.992188 62.066406 "/><path style=" stroke:none;fill-rule:nonzero;fill:#5479f7;fill-opacity:1;" d="M 148.320312 87.625 C 147.152344 74.996094 156.320312 63.796875 168.804688 62.609375 C 181.289062 61.425781 192.355469 70.703125 193.527344 83.335938 C 194.699219 95.964844 185.527344 107.164062 173.046875 108.347656 C 160.5625 109.53125 149.492188 100.253906 148.320312 87.625 "/><path style=" stroke:none;fill-rule:nonzero;fill:#ffffff;fill-opacity:1;" d="M 160.726562 94.703125 C 160.433594 94.703125 160.179688 94.492188 160.128906 94.199219 L 156.546875 74.253906 L 153.675781 74.117188 C 153.339844 74.101562 153.078125 73.816406 153.097656 73.480469 C 153.113281 73.144531 153.382812 72.886719 153.730469 72.902344 L 157.085938 73.0625 C 157.371094 73.074219 157.609375 73.285156 157.65625 73.5625 L 161.234375 93.472656 L 181.445312 93.015625 L 186.886719 79.503906 C 187.011719 79.195312 187.367188 79.042969 187.675781 79.167969 C 187.988281 79.296875 188.140625 79.648438 188.015625 79.960938 L 182.421875 93.839844 C 182.332031 94.070312 182.117188 94.21875 181.871094 94.222656 L 160.742188 94.703125 C 160.738281 94.703125 160.730469 94.703125 160.726562 94.703125 "/><path style=" stroke:none;fill-rule:nonzero;fill:#ffffff;fill-opacity:1;" d="M 158.480469 80.660156 C 158.148438 80.660156 157.875 80.390625 157.871094 80.058594 C 157.867188 79.722656 158.136719 79.449219 158.472656 79.441406 L 187.441406 79.125 C 187.445312 79.125 187.449219 79.125 187.449219 79.125 C 187.785156 79.125 188.054688 79.394531 188.058594 79.726562 C 188.0625 80.0625 187.792969 80.335938 187.457031 80.339844 L 158.488281 80.660156 C 158.484375 80.660156 158.484375 80.660156 158.480469 80.660156 "/><path style=" stroke:none;fill-rule:nonzero;fill:#ffffff;fill-opacity:1;" d="M 159.308594 85.765625 C 158.976562 85.765625 158.703125 85.496094 158.699219 85.164062 C 158.695312 84.828125 158.964844 84.550781 159.300781 84.546875 L 184.625 84.226562 C 184.972656 84.214844 185.234375 84.492188 185.238281 84.828125 C 185.246094 85.164062 184.976562 85.441406 184.640625 85.445312 L 159.316406 85.765625 C 159.3125 85.765625 159.3125 85.765625 159.308594 85.765625 "/><path style=" stroke:none;fill-rule:nonzero;fill:#ffffff;fill-opacity:1;" d="M 160.136719 90.230469 C 159.804688 90.230469 159.535156 89.964844 159.527344 89.632812 C 159.523438 89.296875 159.792969 89.019531 160.128906 89.015625 L 183.019531 88.695312 C 183.34375 88.691406 183.628906 88.960938 183.636719 89.296875 C 183.640625 89.632812 183.371094 89.910156 183.035156 89.914062 L 160.144531 90.230469 C 160.140625 90.230469 160.140625 90.230469 160.136719 90.230469 "/><path style=" stroke:none;fill-rule:nonzero;fill:#ffffff;fill-opacity:1;" d="M 167.226562 98.367188 C 167.226562 99.425781 166.296875 100.285156 165.152344 100.285156 C 164.007812 100.285156 163.078125 99.425781 163.078125 98.367188 C 163.078125 97.3125 164.007812 96.453125 165.152344 96.453125 C 166.296875 96.453125 167.226562 97.3125 167.226562 98.367188 "/><path style=" stroke:none;fill-rule:nonzero;fill:#ffffff;fill-opacity:1;" d="M 180.464844 98.367188 C 180.464844 99.425781 179.535156 100.285156 178.390625 100.285156 C 177.246094 100.285156 176.316406 99.425781 176.316406 98.367188 C 176.316406 97.3125 177.246094 96.453125 178.390625 96.453125 C 179.535156 96.453125 180.464844 97.3125 180.464844 98.367188 "/><path style=" stroke:none;fill-rule:nonzero;fill:#ffffff;fill-opacity:1;" d="M 167.125 93.425781 C 166.824219 93.425781 166.5625 93.203125 166.523438 92.898438 L 164.773438 80.132812 C 164.726562 79.800781 164.960938 79.492188 165.292969 79.449219 C 165.625 79.402344 165.933594 79.636719 165.976562 79.96875 L 167.726562 92.730469 C 167.773438 93.066406 167.539062 93.371094 167.207031 93.417969 C 167.179688 93.421875 167.152344 93.425781 167.125 93.425781 "/><path style=" stroke:none;fill-rule:nonzero;fill:#ffffff;fill-opacity:1;" d="M 174.566406 94.0625 C 174.554688 94.0625 174.542969 94.0625 174.53125 94.0625 C 174.195312 94.046875 173.9375 93.757812 173.957031 93.421875 L 174.6875 80.179688 C 174.703125 79.84375 174.984375 79.585938 175.328125 79.605469 C 175.664062 79.621094 175.921875 79.910156 175.902344 80.246094 L 175.171875 93.488281 C 175.15625 93.8125 174.886719 94.0625 174.566406 94.0625 "/><path style=" stroke:none;fill-rule:nonzero;fill:#000000;fill-opacity:1;" d="M 208.089844 240.441406 C 208.089844 240.441406 197.960938 231.078125 194.246094 228.898438 C 190.53125 226.71875 185.902344 217.78125 198.390625 212.304688 C 202.4375 210.53125 203.234375 205.613281 211.03125 204.773438 C 218.824219 203.933594 225.300781 207.890625 226.140625 212.808594 C 226.976562 217.722656 222.316406 221.984375 218.832031 222.550781 C 215.347656 223.121094 208.089844 240.441406 208.089844 240.441406 "/><path style=" stroke:none;fill-rule:nonzero;fill:#ffffff;fill-opacity:1;" d="M 225.695312 228.886719 L 226.78125 227.316406 L 222.488281 221.824219 L 219.546875 214.609375 C 211.226562 214.042969 207.894531 216.316406 207.785156 222.695312 C 207.714844 226.785156 205.5625 226.882812 205.5625 226.882812 C 205.5625 226.882812 202.398438 223.480469 200.765625 227.519531 C 199.128906 231.558594 205.929688 234.363281 205.929688 234.363281 C 206.8125 236.226562 206.597656 238.425781 205.375 240.089844 L 193.28125 256.527344 C 193.28125 256.527344 215.960938 262.53125 216.199219 258.953125 C 216.265625 257.9375 215.921875 257.074219 215.390625 256.351562 C 212.777344 252.792969 217.5 243.164062 217.5 243.164062 L 225.070312 240.105469 C 226.457031 239.546875 227.195312 238.027344 226.777344 236.589844 L 225.28125 231.4375 C 225.03125 230.570312 225.179688 229.632812 225.695312 228.886719 "/><path style=" stroke:none;fill-rule:nonzero;fill:#000000;fill-opacity:1;" d="M 194.304688 256.164062 C 201.832031 258.105469 213.550781 260.460938 215.46875 259.082031 C 215.585938 259 215.589844 258.941406 215.589844 258.914062 C 215.640625 258.148438 215.410156 257.40625 214.902344 256.714844 C 212.101562 252.898438 216.753906 243.304688 216.953125 242.898438 C 217.019531 242.761719 217.132812 242.65625 217.273438 242.601562 L 224.84375 239.542969 C 225.945312 239.097656 226.527344 237.898438 226.195312 236.757812 L 224.699219 231.609375 C 224.394531 230.558594 224.574219 229.441406 225.195312 228.542969 L 226.027344 227.339844 L 222.007812 222.199219 C 221.972656 222.152344 221.945312 222.105469 221.925781 222.054688 L 219.125 215.191406 C 214.769531 214.9375 211.980469 215.515625 210.355469 217.003906 C 209.0625 218.195312 208.4375 220.007812 208.394531 222.707031 C 208.3125 227.316406 205.699219 227.488281 205.589844 227.492188 C 205.410156 227.5 205.238281 227.429688 205.117188 227.300781 C 204.769531 226.929688 203.667969 226.003906 202.75 226.171875 C 202.1875 226.277344 201.707031 226.804688 201.328125 227.746094 C 199.933594 231.1875 206.097656 233.773438 206.160156 233.800781 C 206.300781 233.855469 206.414062 233.964844 206.476562 234.101562 C 207.457031 236.171875 207.222656 238.605469 205.867188 240.449219 Z M 212.976562 260.675781 C 206.785156 260.675781 194.769531 257.550781 193.125 257.113281 C 192.929688 257.0625 192.773438 256.917969 192.707031 256.726562 C 192.640625 256.539062 192.671875 256.328125 192.792969 256.164062 L 204.886719 239.726562 C 205.933594 238.304688 206.148438 236.445312 205.46875 234.824219 C 204.21875 234.265625 198.519531 231.433594 200.199219 227.289062 C 200.746094 225.9375 201.53125 225.160156 202.535156 224.976562 C 203.902344 224.722656 205.207031 225.726562 205.746094 226.214844 C 206.179688 226.039062 207.128906 225.347656 207.175781 222.6875 C 207.226562 219.671875 208 217.519531 209.535156 216.109375 C 211.464844 214.335938 214.660156 213.664062 219.585938 214 C 219.816406 214.015625 220.019531 214.160156 220.109375 214.378906 L 223.019531 221.515625 L 227.261719 226.941406 C 227.425781 227.152344 227.433594 227.445312 227.28125 227.664062 L 226.195312 229.234375 C 225.785156 229.828125 225.664062 230.570312 225.867188 231.269531 L 227.363281 236.417969 C 227.871094 238.164062 226.980469 239.992188 225.296875 240.671875 L 217.945312 243.640625 C 216.636719 246.390625 213.96875 253.386719 215.882812 255.992188 C 216.566406 256.921875 216.875 257.933594 216.804688 258.992188 C 216.785156 259.296875 216.660156 259.726562 216.179688 260.070312 C 215.582031 260.5 214.441406 260.671875 212.976562 260.675781 "/><path style=" stroke:none;fill-rule:nonzero;fill:#000000;fill-opacity:1;" d="M 206.167969 221.5 L 211.921875 229.285156 C 214.363281 232.585938 218.832031 233.636719 222.484375 231.773438 L 225.609375 230.183594 L 231.382812 240.808594 C 232 242.324219 231.199219 244.042969 229.644531 244.539062 L 221.253906 248.019531 C 218.855469 248.785156 216.230469 248.140625 214.464844 246.351562 L 205.445312 237.207031 C 205.445312 237.207031 208.863281 234.035156 205.5625 226.882812 C 202.257812 219.734375 206.167969 221.5 206.167969 221.5 "/><path style=" stroke:none;fill-rule:nonzero;fill:#5479f7;fill-opacity:1;" d="M 303.035156 245.015625 L 286.601562 247.421875 C 286.601562 247.421875 279.9375 273.027344 263.21875 273.867188 C 255.175781 274.269531 249.085938 271.765625 244.9375 269.058594 C 238.652344 264.957031 231.480469 262.421875 224 261.804688 L 193.953125 259.328125 C 177.347656 257.964844 161.519531 266.609375 153.714844 281.332031 C 145.367188 297.074219 135.023438 318.070312 128.421875 336.753906 C 127.203125 340.199219 129.742188 343.8125 133.394531 343.8125 L 213.128906 343.8125 L 230.671875 299.878906 C 239.414062 303.597656 252.882812 306.882812 271.804688 305.140625 C 311.804688 301.457031 303.035156 245.015625 303.035156 245.015625 "/><path style=" stroke:none;fill-rule:nonzero;fill:#000000;fill-opacity:1;" d="M 190.503906 259.796875 C 175.390625 259.796875 161.414062 268.105469 154.25 281.617188 C 146.453125 296.328125 135.742188 317.867188 128.992188 336.957031 C 128.480469 338.414062 128.695312 339.972656 129.585938 341.234375 C 130.46875 342.484375 131.859375 343.203125 133.394531 343.203125 L 212.71875 343.203125 L 230.109375 299.652344 C 230.167969 299.5 230.289062 299.375 230.441406 299.316406 C 230.589844 299.253906 230.761719 299.253906 230.910156 299.316406 C 238.820312 302.683594 252.328125 306.324219 271.75 304.535156 C 281.035156 303.679688 288.40625 299.832031 293.65625 293.097656 C 306 277.269531 303.078125 250.078125 302.515625 245.707031 L 287.082031 247.96875 C 286.652344 249.46875 284.933594 255.046875 281.707031 260.632812 C 276.683594 269.335938 270.300781 274.121094 263.25 274.472656 C 256.394531 274.820312 250.121094 273.167969 244.605469 269.566406 C 238.347656 265.480469 231.203125 263.007812 223.949219 262.410156 L 193.902344 259.9375 C 192.765625 259.84375 191.632812 259.796875 190.503906 259.796875 Z M 213.128906 344.421875 L 133.394531 344.421875 C 131.457031 344.421875 129.707031 343.515625 128.589844 341.9375 C 127.46875 340.351562 127.199219 338.386719 127.847656 336.550781 C 134.617188 317.390625 145.359375 295.792969 153.175781 281.046875 C 161.101562 266.097656 177.128906 257.332031 194.003906 258.722656 L 224.050781 261.199219 C 231.503906 261.8125 238.84375 264.351562 245.269531 268.546875 C 250.566406 272.003906 256.597656 273.589844 263.1875 273.261719 C 279.273438 272.449219 285.949219 247.523438 286.015625 247.269531 C 286.074219 247.035156 286.273438 246.855469 286.515625 246.820312 L 302.945312 244.414062 C 303.277344 244.367188 303.582031 244.59375 303.632812 244.925781 C 303.683594 245.234375 308.320312 276.277344 294.617188 293.847656 C 289.152344 300.855469 281.496094 304.859375 271.859375 305.746094 C 252.644531 307.515625 239.117188 304.03125 231.007812 300.679688 L 213.695312 344.039062 C 213.601562 344.269531 213.378906 344.421875 213.128906 344.421875 "/><path style=" stroke:none;fill-rule:nonzero;fill:#5479f7;fill-opacity:1;" d="M 233.945312 308.628906 C 221.523438 304.515625 214.8125 285.203125 214.8125 285.203125 L 178.234375 292.570312 C 178.234375 292.570312 203.585938 333.03125 221.058594 336.738281 C 231.949219 339.046875 253.824219 328.773438 268.765625 320.703125 C 266.851562 316.46875 264.097656 310.390625 262.054688 305.917969 C 251.128906 308.574219 239.585938 310.496094 233.945312 308.628906 "/><path style=" stroke:none;fill-rule:nonzero;fill:#000000;fill-opacity:1;" d="M 224.527344 337.675781 C 223.234375 337.675781 222.03125 337.566406 220.933594 337.332031 C 203.410156 333.617188 178.761719 294.554688 177.71875 292.894531 C 177.539062 292.609375 177.628906 292.234375 177.910156 292.054688 C 178.199219 291.875 178.570312 291.964844 178.75 292.25 C 179.003906 292.648438 204.164062 332.535156 221.183594 336.144531 C 229.324219 337.867188 245.933594 332.292969 267.976562 320.4375 C 265.347656 314.621094 263.242188 309.984375 261.710938 306.628906 C 247.972656 309.933594 238.570312 310.800781 233.753906 309.207031 C 221.191406 305.046875 214.515625 286.203125 214.238281 285.402344 C 214.128906 285.085938 214.296875 284.738281 214.613281 284.628906 C 214.929688 284.519531 215.277344 284.6875 215.386719 285.003906 C 215.453125 285.195312 222.144531 304.078125 234.136719 308.050781 C 238.726562 309.570312 248.332031 308.628906 261.910156 305.328125 C 262.195312 305.257812 262.484375 305.398438 262.609375 305.664062 C 264.199219 309.148438 266.457031 314.121094 269.320312 320.453125 C 269.453125 320.742188 269.335938 321.085938 269.054688 321.238281 C 254.714844 328.984375 236.054688 337.675781 224.527344 337.675781 "/><path style=" stroke:none;fill-rule:nonzero;fill:#ffffff;fill-opacity:1;" d="M 308.5 310.1875 L 291.566406 300.78125 C 288.953125 299.328125 285.855469 299.023438 283.007812 299.941406 C 278.289062 301.464844 270.351562 303.902344 262.054688 305.917969 C 264.097656 310.390625 266.851562 316.46875 268.765625 320.703125 C 277.800781 315.824219 284.296875 311.75 284.296875 311.75 L 295.226562 317.507812 C 295.226562 317.507812 294.617188 327.105469 296.789062 327.367188 C 298.957031 327.632812 299.773438 318.777344 299.773438 318.777344 C 299.773438 318.777344 301.640625 329.769531 304.863281 327.367188 L 306.101562 314.09375 C 306.101562 314.09375 308.238281 319.972656 309.46875 320.214844 C 310.695312 320.457031 310.695312 320.457031 310.695312 320.457031 L 308.5 310.1875 "/><path style=" stroke:none;fill-rule:nonzero;fill:#000000;fill-opacity:1;" d="M 299.773438 318.171875 C 300.070312 318.171875 300.324219 318.382812 300.375 318.675781 C 300.871094 321.597656 302.214844 326.453125 303.710938 327.054688 C 303.84375 327.105469 304.023438 327.144531 304.285156 327.015625 L 305.492188 314.039062 C 305.519531 313.753906 305.738281 313.527344 306.023438 313.492188 C 306.300781 313.453125 306.574219 313.617188 306.671875 313.886719 C 307.726562 316.777344 309.066406 319.40625 309.601562 319.625 L 309.90625 319.683594 L 307.960938 310.585938 L 291.273438 301.3125 C 288.8125 299.949219 285.871094 299.660156 283.199219 300.519531 C 278.265625 302.113281 270.804688 304.390625 262.914062 306.335938 C 264.433594 309.65625 266.492188 314.199219 269.050781 319.859375 C 277.664062 315.179688 283.910156 311.273438 283.972656 311.238281 C 284.15625 311.121094 284.386719 311.113281 284.582031 311.210938 L 295.511719 316.96875 C 295.722656 317.082031 295.847656 317.308594 295.832031 317.546875 C 295.535156 322.269531 296.023438 326.660156 296.859375 326.765625 C 296.886719 326.765625 296.949219 326.773438 297.070312 326.675781 C 298.144531 325.8125 298.925781 321.339844 299.167969 318.722656 C 299.195312 318.417969 299.445312 318.179688 299.75 318.171875 C 299.757812 318.171875 299.765625 318.171875 299.773438 318.171875 Z M 303.953125 328.320312 C 303.683594 328.320312 303.445312 328.257812 303.257812 328.183594 C 301.683594 327.550781 300.578125 324.613281 299.914062 322.191406 C 299.527344 324.316406 298.867188 326.789062 297.835938 327.621094 C 297.402344 327.972656 296.988281 328.003906 296.714844 327.972656 C 294.34375 327.683594 294.414062 321.101562 294.59375 317.863281 L 284.320312 312.453125 C 282.941406 313.304688 276.925781 316.988281 269.054688 321.238281 C 268.90625 321.316406 268.734375 321.332031 268.574219 321.28125 C 268.414062 321.226562 268.28125 321.105469 268.210938 320.953125 C 265.351562 314.625 263.09375 309.652344 261.5 306.171875 C 261.425781 306.007812 261.429688 305.816406 261.507812 305.652344 C 261.585938 305.492188 261.734375 305.371094 261.910156 305.328125 C 270.027344 303.355469 277.761719 300.992188 282.820312 299.363281 C 285.816406 298.398438 289.109375 298.722656 291.863281 300.25 L 308.796875 309.65625 C 308.949219 309.746094 309.058594 309.890625 309.09375 310.0625 L 311.289062 320.332031 C 311.335938 320.53125 311.273438 320.738281 311.128906 320.882812 C 310.984375 321.03125 310.777344 321.097656 310.578125 321.054688 L 309.351562 320.8125 C 308.398438 320.625 307.320312 318.648438 306.46875 316.683594 L 305.46875 327.425781 C 305.453125 327.59375 305.367188 327.753906 305.226562 327.855469 C 304.757812 328.203125 304.324219 328.320312 303.953125 328.320312 "/><path style=" stroke:none;fill-rule:nonzero;fill:#5479f7;fill-opacity:1;" d="M 222.207031 263.1875 L 222.953125 258.65625 C 223.203125 257.144531 222.222656 255.707031 220.722656 255.390625 C 213.246094 253.8125 192.527344 249.324219 189.832031 247.421875 C 186.53125 245.097656 162.636719 267.613281 166.21875 267.023438 C 192.890625 262.625 222.207031 263.1875 222.207031 263.1875 "/><path style=" stroke:none;fill-rule:nonzero;fill:#000000;fill-opacity:1;" d="M 189.195312 247.863281 C 188.96875 247.863281 188.574219 247.929688 187.929688 248.195312 C 181.972656 250.644531 168.761719 263.191406 166.71875 266.324219 C 191.050781 262.390625 217.644531 262.523438 221.691406 262.570312 L 222.355469 258.558594 C 222.550781 257.367188 221.777344 256.234375 220.597656 255.984375 C 212.15625 254.207031 192.226562 249.859375 189.480469 247.921875 C 189.464844 247.910156 189.386719 247.863281 189.195312 247.863281 Z M 166.09375 267.644531 C 165.574219 267.644531 165.371094 267.300781 165.316406 267.179688 C 165.136719 266.785156 164.832031 266.117188 169.167969 261.683594 C 171.675781 259.113281 175.003906 256.058594 178.078125 253.511719 C 187.929688 245.339844 189.625 246.535156 190.179688 246.925781 C 191.960938 248.179688 203.421875 251.121094 220.847656 254.792969 C 222.667969 255.179688 223.855469 256.917969 223.554688 258.757812 L 222.808594 263.285156 C 222.757812 263.582031 222.507812 263.800781 222.195312 263.792969 C 221.902344 263.789062 192.625 263.285156 166.316406 267.625 C 166.238281 267.636719 166.164062 267.644531 166.09375 267.644531 "/><path style=" stroke:none;fill-rule:nonzero;fill:#ffffff;fill-opacity:1;" d="M 294.796875 217.980469 C 295.253906 217.066406 297.535156 214.351562 298.578125 213.570312 L 309.558594 203.359375 C 309.558594 203.359375 310.988281 208.28125 309.257812 211.183594 C 312.625 211.296875 315.292969 211.867188 315.292969 211.867188 C 315.292969 211.867188 320.3125 207.449219 321.558594 206.683594 C 322.808594 205.925781 324.4375 204.714844 326.121094 204.738281 C 327.804688 204.761719 329.472656 206.046875 329.472656 206.046875 L 319.828125 218.273438 L 302.289062 223.101562 L 303.269531 249.703125 L 286.601562 247.421875 L 294.796875 217.980469 "/><path style=" stroke:none;fill-rule:nonzero;fill:#000000;fill-opacity:1;" d="M 287.378906 246.917969 L 302.632812 249 L 301.679688 223.125 C 301.667969 222.84375 301.855469 222.59375 302.125 222.515625 L 319.472656 217.742188 L 328.585938 206.1875 C 328.015625 205.84375 327.050781 205.359375 326.109375 205.34375 C 324.859375 205.335938 323.503906 206.175781 322.429688 206.859375 C 322.238281 206.980469 322.054688 207.097656 321.875 207.203125 C 320.886719 207.808594 317.082031 211.105469 315.695312 212.324219 C 315.550781 212.453125 315.355469 212.503906 315.167969 212.464844 C 315.140625 212.457031 312.507812 211.898438 309.234375 211.792969 C 309.019531 211.785156 308.824219 211.664062 308.722656 211.472656 C 308.617188 211.285156 308.621094 211.054688 308.734375 210.871094 C 309.863281 208.976562 309.503906 206.046875 309.203125 204.523438 L 298.992188 214.019531 C 298.976562 214.03125 298.960938 214.046875 298.945312 214.058594 C 297.996094 214.769531 295.839844 217.328125 295.367188 218.203125 Z M 303.269531 250.3125 C 303.242188 250.3125 303.214844 250.308594 303.1875 250.304688 L 286.519531 248.027344 C 286.347656 248.003906 286.191406 247.90625 286.09375 247.757812 C 286 247.609375 285.96875 247.429688 286.015625 247.261719 L 294.210938 217.816406 C 294.222656 217.78125 294.238281 217.742188 294.253906 217.707031 C 294.742188 216.730469 297.042969 213.976562 298.1875 213.105469 L 309.144531 202.914062 C 309.300781 202.769531 309.519531 202.71875 309.722656 202.773438 C 309.925781 202.828125 310.085938 202.988281 310.144531 203.191406 C 310.199219 203.382812 311.378906 207.539062 310.199219 210.617188 C 312.542969 210.753906 314.410156 211.078125 315.117188 211.210938 C 316.125 210.328125 320.101562 206.859375 321.246094 206.167969 C 321.414062 206.0625 321.59375 205.949219 321.777344 205.832031 C 322.976562 205.070312 324.46875 204.128906 326.074219 204.128906 C 326.09375 204.128906 326.109375 204.128906 326.128906 204.128906 C 327.992188 204.15625 329.769531 205.507812 329.847656 205.566406 C 329.976562 205.664062 330.058594 205.8125 330.078125 205.972656 C 330.097656 206.132812 330.050781 206.296875 329.953125 206.421875 L 320.304688 218.652344 C 320.222656 218.753906 320.113281 218.828125 319.988281 218.863281 L 302.914062 223.5625 L 303.878906 249.679688 C 303.882812 249.859375 303.8125 250.03125 303.679688 250.152344 C 303.566406 250.257812 303.417969 250.3125 303.269531 250.3125 "/><path style=" stroke:none;fill-rule:nonzero;fill:#5479f7;fill-opacity:1;" d="M 213.539062 243.394531 C 210.199219 243.394531 207.070312 241.507812 205.554688 238.359375 L 203.863281 234.84375 C 203.71875 234.542969 203.847656 234.179688 204.148438 234.035156 C 204.453125 233.886719 204.816406 234.015625 204.960938 234.316406 L 206.652344 237.832031 C 208.28125 241.21875 212.085938 242.917969 215.695312 241.871094 L 223.984375 239.464844 C 224.304688 239.371094 224.644531 239.558594 224.738281 239.878906 C 224.832031 240.203125 224.644531 240.539062 224.324219 240.632812 L 216.03125 243.039062 C 215.203125 243.28125 214.363281 243.394531 213.539062 243.394531 "/><path style=" stroke:none;fill-rule:nonzero;fill:#5479f7;fill-opacity:1;" d="M 203.816406 226.367188 C 203.511719 226.367188 203.25 226.136719 203.214844 225.828125 C 203.152344 225.292969 201.746094 212.679688 207.449219 207 C 209.59375 204.863281 212.460938 203.996094 215.96875 204.421875 C 216.300781 204.464844 216.539062 204.765625 216.496094 205.101562 C 216.457031 205.433594 216.152344 205.671875 215.820312 205.632812 C 212.703125 205.253906 210.175781 206.003906 208.3125 207.863281 C 203.027344 213.125 204.40625 225.5625 204.421875 225.6875 C 204.460938 226.019531 204.222656 226.320312 203.890625 226.359375 C 203.863281 226.363281 203.839844 226.367188 203.816406 226.367188 "/><path style=" stroke:none;fill-rule:nonzero;fill:#5479f7;fill-opacity:1;" d="M 227.292969 240.015625 C 227.453125 238.777344 226.554688 237.644531 225.296875 237.484375 C 224.035156 237.324219 222.886719 238.199219 222.730469 239.4375 C 222.574219 240.675781 223.46875 241.804688 224.730469 241.964844 C 225.988281 242.125 227.136719 241.25 227.292969 240.015625 "/><path style=" stroke:none;fill-rule:nonzero;fill:#99b9ff;fill-opacity:1;" d="M 210.683594 231.046875 C 211.125 227.574219 208.902344 224.433594 205.71875 224.03125 C 205.367188 223.988281 204.074219 223.953125 203.734375 223.976562 C 200.972656 224.164062 199.550781 226.496094 199.160156 229.589844 C 198.738281 232.921875 200.007812 236.035156 202.988281 236.628906 C 203.109375 236.652344 203.992188 236.722656 204.121094 236.726562 C 207.609375 236.734375 210.246094 234.519531 210.683594 231.046875 "/><path style=" stroke:none;fill-rule:nonzero;fill:#5479f7;fill-opacity:1;" d="M 209.308594 230.933594 C 209.679688 227.453125 207.394531 224.359375 204.203125 224.015625 C 201.015625 223.679688 198.128906 226.222656 197.757812 229.699219 C 197.386719 233.179688 199.671875 236.277344 202.859375 236.617188 C 206.050781 236.957031 208.9375 234.414062 209.308594 230.933594 "/><path style=" stroke:none;fill-rule:nonzero;fill:#99b9ff;fill-opacity:1;" d="M 367.699219 360.039062 L 122.285156 360.039062 C 120.492188 360.039062 119.039062 358.585938 119.039062 356.792969 L 119.039062 345.882812 C 119.039062 344.089844 120.492188 342.636719 122.285156 342.636719 L 367.699219 342.636719 C 369.492188 342.636719 370.941406 344.089844 370.941406 345.882812 L 370.941406 356.792969 C 370.941406 358.585938 369.492188 360.039062 367.699219 360.039062 "/><path style=" stroke:none;fill-rule:nonzero;fill:#000000;fill-opacity:1;" d="M 357.871094 338.136719 L 308.914062 338.136719 L 367.582031 282.308594 C 369.414062 280.5625 371.8125 279.503906 373.9375 279.503906 L 413.671875 279.503906 C 416.191406 279.503906 416.644531 282.207031 414.464844 284.28125 L 357.871094 338.136719 "/><path style=" stroke:none;fill-rule:nonzero;fill:#caddff;fill-opacity:1;" d="M 383.964844 299.082031 C 381.394531 301.527344 377.175781 303.511719 374.546875 303.511719 C 371.921875 303.511719 371.871094 301.527344 374.441406 299.082031 C 377.015625 296.636719 381.230469 294.652344 383.859375 294.652344 C 386.488281 294.652344 386.535156 296.636719 383.964844 299.082031 "/><path style=" stroke:none;fill-rule:nonzero;fill:#000000;fill-opacity:1;" d="M 357.136719 343.644531 L 252.585938 343.644531 C 251.558594 343.644531 250.726562 342.808594 250.726562 341.78125 L 250.726562 337.664062 L 359 337.664062 L 359 341.78125 C 359 342.808594 358.164062 343.644531 357.136719 343.644531 "/><path style=" stroke:none;fill-rule:nonzero;fill:#ffffff;fill-opacity:1;" d="M 355.78125 338.804688 L 306.101562 338.804688 C 305.761719 338.804688 305.492188 338.53125 305.492188 338.195312 C 305.492188 337.859375 305.761719 337.585938 306.101562 337.585938 L 355.78125 337.585938 C 356.117188 337.585938 356.390625 337.859375 356.390625 338.195312 C 356.390625 338.53125 356.117188 338.804688 355.78125 338.804688 "/><path style=" stroke:none;fill-rule:nonzero;fill:#99b9ff;fill-opacity:1;" d="M 386.503906 144.882812 C 363.574219 146.503906 343.609375 130.140625 341.90625 108.335938 C 340.207031 86.539062 357.421875 67.554688 380.351562 65.9375 C 403.28125 64.324219 423.25 80.6875 424.949219 102.488281 C 426.648438 124.285156 409.4375 143.269531 386.503906 144.882812 Z M 440.371094 109.277344 L 454.609375 104.9375 L 453.40625 91.972656 L 438.601562 90.085938 C 437.773438 87.195312 436.671875 84.347656 435.316406 81.574219 L 445.359375 71.046875 L 437.5 60.398438 L 423.671875 65.804688 C 421.386719 63.648438 418.945312 61.695312 416.371094 59.972656 L 419.53125 46.097656 L 407.117188 40.613281 L 397.984375 51.867188 C 394.90625 51.101562 391.769531 50.578125 388.601562 50.304688 L 384.039062 36.769531 L 370.402344 37.914062 L 368.414062 51.984375 C 365.375 52.777344 362.386719 53.820312 359.460938 55.109375 L 348.394531 45.558594 L 337.1875 53.035156 L 342.875 66.179688 C 340.605469 68.355469 338.554688 70.671875 336.742188 73.121094 L 322.144531 70.117188 L 316.378906 81.917969 L 328.214844 90.601562 C 327.410156 93.527344 326.859375 96.507812 326.570312 99.519531 L 312.332031 103.863281 L 313.542969 116.824219 L 328.339844 118.710938 C 329.171875 121.601562 330.273438 124.445312 331.628906 127.222656 L 321.582031 137.75 L 329.445312 148.398438 L 343.273438 142.996094 C 345.554688 145.148438 347.996094 147.101562 350.574219 148.824219 L 347.414062 162.699219 L 359.824219 168.1875 L 368.957031 156.929688 C 372.035156 157.695312 375.171875 158.21875 378.339844 158.492188 L 382.90625 172.027344 L 396.539062 170.878906 L 398.527344 156.8125 C 401.570312 156.023438 404.558594 154.976562 407.480469 153.6875 L 418.550781 163.234375 L 429.753906 155.761719 L 424.070312 142.617188 C 426.339844 140.441406 428.390625 138.125 430.203125 135.675781 L 444.796875 138.679688 L 450.570312 126.878906 L 438.726562 118.195312 C 439.535156 115.273438 440.085938 112.289062 440.371094 109.277344 "/><g clip-rule="nonzero" clip-path="url(#827c120f33)"><g clip-rule="nonzero" clip-path="url(#ac65b860a9)"><path style=" stroke:none;fill-rule:nonzero;fill:#000000;fill-opacity:1;" d="M 364.882812 68.066406 C 364.882812 68.066406 369.808594 67.128906 370.605469 57.269531 C 371.398438 47.40625 371.039062 38.816406 381.089844 35.433594 C 391.136719 32.054688 401.207031 36.988281 401.636719 46.464844 C 402.0625 55.941406 409.398438 60.761719 416.214844 64.496094 C 425.027344 69.320312 424.515625 70.628906 429.078125 80.621094 C 433.976562 91.347656 422.554688 113.464844 389.625 95.636719 L 364.882812 68.066406 "/></g></g><g clip-rule="nonzero" clip-path="url(#88a6187a03)"><g clip-rule="nonzero" clip-path="url(#91ca39a6af)"><path style=" stroke:none;fill-rule:nonzero;fill:#ffffff;fill-opacity:1;" d="M 377.039062 58.8125 C 377.039062 58.8125 378.714844 60.320312 381.902344 59.527344 L 377.039062 58.8125 "/></g></g><g clip-rule="nonzero" clip-path="url(#d2b97e9acf)"><g clip-rule="nonzero" clip-path="url(#48ae35f3a9)"><path style=" stroke:none;fill-rule:nonzero;fill:#000000;fill-opacity:1;" d="M 380.105469 60.363281 C 377.886719 60.363281 376.695312 59.320312 376.632812 59.261719 C 376.382812 59.039062 376.363281 58.652344 376.589844 58.402344 C 376.8125 58.15625 377.195312 58.132812 377.445312 58.355469 C 377.511719 58.414062 378.960938 59.632812 381.757812 58.933594 C 382.082031 58.851562 382.414062 59.050781 382.492188 59.375 C 382.578125 59.703125 382.378906 60.035156 382.050781 60.117188 C 381.332031 60.292969 380.683594 60.363281 380.105469 60.363281 "/></g></g><g clip-rule="nonzero" clip-path="url(#ba6508aaf4)"><g clip-rule="nonzero" clip-path="url(#110bd7dbf8)"><path style=" stroke:none;fill-rule:nonzero;fill:#000000;fill-opacity:1;" d="M 412.34375 250.90625 C 409.421875 253.140625 403.105469 256.203125 391.90625 253.847656 L 388.699219 147.867188 L 409.042969 142.664062 C 409.042969 142.664062 413.785156 168.734375 412.921875 195.371094 C 412.128906 219.679688 413.625 240.25 414.179688 246.78125 C 414.3125 248.355469 413.644531 249.910156 412.34375 250.90625 "/></g></g><g clip-rule="nonzero" clip-path="url(#17cedabc51)"><g clip-rule="nonzero" clip-path="url(#effbfc295d)"><path style=" stroke:none;fill-rule:nonzero;fill:#000000;fill-opacity:1;" d="M 407.875 139.640625 L 358.6875 145.769531 L 364.371094 196.996094 C 365.039062 202.980469 367.441406 208.664062 371.3125 213.417969 C 377.519531 221.042969 387.363281 232.210938 394.78125 236.328125 C 406.476562 242.816406 407.875 139.640625 407.875 139.640625 "/></g></g><g clip-rule="nonzero" clip-path="url(#0e87aac365)"><g clip-rule="nonzero" clip-path="url(#12002f7a81)"><path style=" stroke:none;fill-rule:nonzero;fill:#ffffff;fill-opacity:1;" d="M 316.421875 53.011719 C 316.742188 52.929688 316.953125 52.640625 316.921875 52.328125 C 316.757812 50.695312 316.015625 45.808594 312.941406 43.757812 C 309.222656 41.277344 305.761719 35.226562 303.683594 35.984375 C 301.605469 36.738281 306.707031 41.863281 306.222656 42.507812 C 305.738281 43.148438 301.75 39.980469 300.425781 38.039062 C 299.101562 36.101562 297.375 32.246094 295.6875 32.5 C 293.375 32.851562 293.125 36.21875 296.71875 42.566406 C 300.136719 48.609375 310.125 49.589844 311.214844 53.6875 C 311.308594 54.035156 311.6875 54.238281 312.054688 54.144531 L 316.421875 53.011719 "/></g></g><g clip-rule="nonzero" clip-path="url(#c85c4b93be)"><g clip-rule="nonzero" clip-path="url(#4c3621d325)"><path style=" stroke:none;fill-rule:nonzero;fill:#000000;fill-opacity:1;" d="M 295.859375 33.097656 C 295.832031 33.097656 295.808594 33.097656 295.78125 33.101562 C 295.316406 33.171875 295 33.394531 294.808594 33.789062 C 294.125 35.191406 295.039062 38.359375 297.25 42.265625 C 298.953125 45.273438 302.46875 47.007812 305.570312 48.535156 C 308.601562 50.027344 311.21875 51.3125 311.804688 53.527344 C 311.808594 53.539062 311.847656 53.566406 311.898438 53.550781 L 316.269531 52.421875 C 316.304688 52.410156 316.316406 52.390625 316.316406 52.386719 C 316.175781 50.964844 315.484375 46.183594 312.609375 44.261719 C 310.972656 43.175781 309.398438 41.433594 308.007812 39.894531 C 306.460938 38.1875 304.707031 36.253906 303.894531 36.550781 C 303.8125 36.582031 303.808594 36.601562 303.804688 36.613281 C 303.625 37.175781 304.902344 39.023438 305.589844 40.015625 C 306.628906 41.523438 307.15625 42.277344 306.710938 42.871094 C 306.613281 42.996094 306.398438 43.207031 305.988281 43.199219 C 304.621094 43.167969 301.0625 40.042969 299.921875 38.378906 C 299.597656 37.910156 299.261719 37.339844 298.902344 36.738281 C 298.039062 35.277344 296.742188 33.097656 295.859375 33.097656 Z M 311.871094 54.773438 C 311.300781 54.773438 310.777344 54.402344 310.628906 53.839844 C 310.183594 52.160156 307.796875 50.988281 305.035156 49.625 C 301.777344 48.019531 298.078125 46.199219 296.191406 42.863281 C 293.671875 38.417969 292.816406 35.097656 293.714844 33.257812 C 294.082031 32.496094 294.734375 32.027344 295.597656 31.898438 C 297.296875 31.644531 298.644531 33.917969 299.953125 36.117188 C 300.296875 36.699219 300.625 37.253906 300.929688 37.691406 C 301.84375 39.027344 303.953125 40.820312 305.191406 41.597656 C 305 41.304688 304.777344 40.984375 304.589844 40.710938 C 303.238281 38.757812 302.308594 37.292969 302.644531 36.242188 C 302.730469 35.96875 302.945312 35.601562 303.476562 35.40625 C 305.0625 34.832031 306.757812 36.703125 308.910156 39.078125 C 310.253906 40.5625 311.777344 42.246094 313.28125 43.25 C 316.511719 45.40625 317.328125 50.269531 317.527344 52.265625 C 317.589844 52.878906 317.191406 53.441406 316.574219 53.601562 L 312.207031 54.730469 C 312.09375 54.757812 311.980469 54.773438 311.871094 54.773438 "/></g></g><g clip-rule="nonzero" clip-path="url(#8e88bca479)"><g clip-rule="nonzero" clip-path="url(#a572232ceb)"><path style=" stroke:none;fill-rule:nonzero;fill:#5479f7;fill-opacity:1;" d="M 376.625 66.546875 C 372.148438 65.910156 367.597656 65.859375 363.113281 66.410156 C 357.980469 67.039062 351.515625 68.253906 347.40625 70.585938 C 339.703125 74.953125 336.238281 79.851562 331.398438 78.363281 C 327.339844 77.117188 320.722656 58.671875 318.699219 52.773438 C 318.355469 51.769531 317.238281 51.203125 316.167969 51.484375 L 311.304688 52.769531 C 310.285156 53.042969 309.640625 53.988281 309.808594 54.984375 C 311.128906 62.914062 316.984375 95.332031 324.644531 97.128906 C 333.371094 99.171875 353.941406 87.082031 353.941406 87.082031 C 353.941406 87.082031 356.894531 127.273438 352.980469 148.832031 C 352.980469 148.832031 361.761719 148.167969 367.644531 150.015625 C 399.027344 159.859375 410.773438 144.757812 410.773438 144.757812 C 409.941406 136.554688 407.601562 131.054688 400.660156 122.328125 C 396.863281 117.558594 395.257812 109.53125 401.421875 101.746094 C 401.421875 101.746094 421.589844 148.78125 425.089844 154.242188 C 425.328125 154.613281 435.265625 151.769531 435.269531 151.542969 C 435.558594 134.144531 420.578125 102.789062 418.152344 95.101562 C 417.421875 92.769531 416.507812 90.496094 415.347656 88.324219 C 411.730469 81.550781 403.964844 70.585938 390.910156 68.574219 L 376.625 66.546875 "/></g></g><g clip-rule="nonzero" clip-path="url(#acd0dcbdb3)"><g clip-rule="nonzero" clip-path="url(#b4a91eb299)"><path style=" stroke:none;fill-rule:nonzero;fill:#000000;fill-opacity:1;" d="M 401.425781 101.140625 C 401.449219 101.140625 401.476562 101.140625 401.503906 101.144531 C 401.71875 101.171875 401.898438 101.3125 401.984375 101.507812 C 402.179688 101.972656 421.589844 147.210938 425.441406 153.652344 C 426.855469 153.476562 433.171875 151.71875 434.664062 151.160156 C 434.71875 137.957031 426.160156 116.855469 421.027344 104.203125 C 419.421875 100.246094 418.152344 97.117188 417.574219 95.285156 C 416.796875 92.820312 415.894531 90.636719 414.8125 88.609375 C 411.386719 82.203125 403.71875 71.164062 390.816406 69.175781 L 376.539062 67.148438 C 372.09375 66.519531 367.601562 66.472656 363.1875 67.015625 C 358.390625 67.601562 351.808594 68.789062 347.707031 71.117188 C 345.214844 72.527344 343.175781 73.992188 341.375 75.289062 C 337.535156 78.046875 334.765625 80.035156 331.222656 78.945312 C 327.144531 77.691406 321.265625 62.132812 318.125 52.972656 C 317.878906 52.265625 317.089844 51.871094 316.320312 52.074219 L 311.460938 53.359375 C 310.746094 53.546875 310.296875 54.203125 310.40625 54.882812 C 313.472656 73.261719 319.074219 95.195312 324.78125 96.535156 C 333.175781 98.5 353.425781 86.675781 353.632812 86.558594 C 353.8125 86.453125 354.039062 86.449219 354.222656 86.546875 C 354.40625 86.644531 354.53125 86.828125 354.546875 87.039062 C 354.574219 87.4375 357.398438 126.617188 353.714844 148.175781 C 356.015625 148.058594 362.859375 147.871094 367.832031 149.433594 C 383.820312 154.449219 394.519531 152.804688 400.679688 150.539062 C 406.488281 148.40625 409.460938 145.332031 410.144531 144.5625 C 409.277344 136.410156 406.828125 131.058594 400.1875 122.707031 C 396.453125 118.015625 394.414062 109.617188 400.949219 101.371094 C 401.0625 101.222656 401.242188 101.140625 401.425781 101.140625 Z M 425.226562 154.875 C 424.773438 154.875 424.683594 154.734375 424.578125 154.570312 C 421.328125 149.496094 404.246094 109.859375 401.277344 102.949219 C 395.945312 110.363281 397.808594 117.761719 401.136719 121.949219 C 408.019531 130.601562 410.507812 136.128906 411.378906 144.695312 C 411.394531 144.851562 411.347656 145.007812 411.253906 145.132812 C 411.128906 145.289062 408.128906 149.074219 401.191406 151.648438 C 394.84375 154.003906 383.839844 155.734375 367.464844 150.59375 C 361.757812 148.804688 353.113281 149.429688 353.027344 149.4375 C 352.832031 149.449219 352.65625 149.378906 352.53125 149.238281 C 352.402344 149.097656 352.351562 148.90625 352.382812 148.722656 C 355.90625 129.339844 353.8125 94.355469 353.398438 88.09375 C 349.730469 90.175781 335.414062 97.964844 326.875 97.96875 C 326.019531 97.96875 325.226562 97.890625 324.503906 97.722656 C 320.96875 96.890625 317.617188 90.613281 314.265625 78.519531 C 311.667969 69.160156 309.863281 59.011719 309.207031 55.082031 C 308.988281 53.78125 309.824219 52.53125 311.148438 52.183594 L 316.011719 50.898438 C 317.394531 50.53125 318.828125 51.269531 319.277344 52.578125 C 324.339844 67.347656 329.054688 77.003906 331.578125 77.78125 C 334.546875 78.695312 336.980469 76.945312 340.660156 74.300781 C 342.488281 72.988281 344.558594 71.5 347.105469 70.054688 C 351.382812 67.632812 358.132812 66.40625 363.039062 65.804688 C 367.558594 65.253906 372.15625 65.300781 376.710938 65.941406 L 390.996094 67.972656 C 404.425781 70.039062 412.355469 81.429688 415.886719 88.035156 C 417.003906 90.132812 417.9375 92.382812 418.734375 94.917969 C 419.300781 96.707031 420.558594 99.8125 422.152344 103.746094 C 427.371094 116.605469 436.101562 138.128906 435.878906 151.550781 C 435.867188 152.066406 435.867188 152.160156 431.46875 153.414062 C 427.53125 154.53125 425.933594 154.875 425.226562 154.875 "/></g></g><g clip-rule="nonzero" clip-path="url(#5fce34d5de)"><g clip-rule="nonzero" clip-path="url(#5eacbadb19)"><path style=" stroke:none;fill-rule:nonzero;fill:#000000;fill-opacity:1;" d="M 374.546875 142.363281 C 374.339844 142.363281 374.140625 142.261719 374.027344 142.074219 L 362.980469 124.023438 C 362.804688 123.738281 362.894531 123.363281 363.179688 123.1875 C 363.464844 123.011719 363.84375 123.101562 364.015625 123.386719 L 375.066406 141.441406 C 375.242188 141.722656 375.148438 142.101562 374.863281 142.273438 C 374.765625 142.335938 374.652344 142.363281 374.546875 142.363281 "/></g></g><g clip-rule="nonzero" clip-path="url(#aad5be26d5)"><g clip-rule="nonzero" clip-path="url(#da74acf353)"><path style=" stroke:none;fill-rule:nonzero;fill:#000000;fill-opacity:1;" d="M 366.226562 139.859375 C 366.007812 139.859375 365.796875 139.742188 365.6875 139.535156 L 361.789062 132.164062 C 361.632812 131.867188 361.746094 131.496094 362.042969 131.339844 C 362.339844 131.183594 362.707031 131.296875 362.867188 131.59375 L 366.761719 138.964844 C 366.921875 139.265625 366.808594 139.632812 366.507812 139.789062 C 366.417969 139.835938 366.324219 139.859375 366.226562 139.859375 "/></g></g><g clip-rule="nonzero" clip-path="url(#56ba9903cb)"><g clip-rule="nonzero" clip-path="url(#793850672c)"><path style=" stroke:none;fill-rule:nonzero;fill:#ffffff;fill-opacity:1;" d="M 377.28125 59.003906 C 373.976562 57.167969 376.597656 44.589844 380.019531 42.519531 C 383.441406 40.449219 391.074219 41.90625 391.074219 41.90625 C 388.96875 50.78125 394.136719 52.578125 394.835938 52.53125 C 395.527344 52.484375 397.753906 52.449219 396.582031 55.355469 C 395.410156 58.269531 392.164062 56.957031 392.164062 56.957031 C 391.574219 57.53125 390.441406 58.210938 389.03125 58.820312 C 387.6875 63.824219 389.878906 67.527344 391.675781 69.574219 C 392.589844 70.613281 392.132812 72.210938 390.777344 72.621094 C 388.605469 73.28125 385.253906 73.8125 380.914062 73.046875 C 377.59375 72.457031 375.332031 71.492188 373.820312 70.554688 C 372.574219 69.785156 372.621094 67.996094 373.925781 67.316406 C 377.429688 65.476562 379.46875 60.222656 377.28125 59.003906 "/></g></g><g clip-rule="nonzero" clip-path="url(#c13a9477c6)"><g clip-rule="nonzero" clip-path="url(#d41ce3aa42)"><path style=" stroke:none;fill-rule:nonzero;fill:#000000;fill-opacity:1;" d="M 377.578125 58.472656 C 378.375 58.917969 378.804688 59.785156 378.796875 60.914062 C 378.765625 63.109375 377.003906 66.386719 374.207031 67.855469 C 373.789062 68.074219 373.542969 68.457031 373.527344 68.914062 C 373.507812 69.371094 373.738281 69.789062 374.140625 70.039062 C 375.933594 71.144531 378.246094 71.957031 381.019531 72.445312 C 385.316406 73.207031 388.601562 72.644531 390.601562 72.039062 C 391.046875 71.902344 391.375 71.582031 391.496094 71.15625 C 391.617188 70.742188 391.515625 70.3125 391.21875 69.976562 C 389.1875 67.660156 387.054688 63.820312 388.441406 58.664062 L 388.519531 58.378906 L 388.789062 58.261719 C 390.101562 57.695312 391.199219 57.042969 391.738281 56.523438 L 392.019531 56.246094 L 392.386719 56.394531 C 392.664062 56.5 395.109375 57.394531 396.015625 55.128906 C 396.339844 54.339844 396.398438 53.746094 396.1875 53.457031 C 396.003906 53.203125 395.539062 53.089844 394.875 53.136719 C 394.246094 53.179688 392.835938 52.636719 391.726562 51.324219 C 390.527344 49.910156 389.34375 47.230469 390.339844 42.398438 C 388.492188 42.117188 382.972656 41.445312 380.332031 43.039062 C 378.328125 44.253906 376.289062 50.300781 376.371094 54.804688 C 376.40625 56.726562 376.847656 58.066406 377.578125 58.472656 Z M 385.089844 74.03125 C 383.796875 74.03125 382.363281 73.921875 380.808594 73.644531 C 377.882812 73.128906 375.421875 72.261719 373.5 71.070312 C 372.722656 70.589844 372.277344 69.769531 372.308594 68.871094 C 372.339844 67.980469 372.839844 67.199219 373.640625 66.777344 C 375.96875 65.558594 377.554688 62.753906 377.578125 60.898438 C 377.585938 60.21875 377.386719 59.757812 376.984375 59.535156 C 375.832031 58.894531 375.199219 57.265625 375.15625 54.828125 C 375.074219 50.308594 377.085938 43.582031 379.703125 41.996094 C 383.285156 39.832031 390.867188 41.246094 391.191406 41.308594 L 391.8125 41.425781 L 391.667969 42.046875 C 390.585938 46.605469 391.519531 49.074219 392.5 50.34375 C 393.46875 51.605469 394.632812 51.917969 394.804688 51.921875 C 396.195312 51.824219 396.859375 52.3125 397.171875 52.742188 C 397.652344 53.402344 397.644531 54.355469 397.148438 55.585938 C 396.132812 58.097656 393.710938 58.078125 392.300781 57.648438 C 391.664062 58.171875 390.695312 58.742188 389.550781 59.257812 C 388.449219 63.753906 390.332031 67.121094 392.136719 69.175781 C 392.699219 69.816406 392.898438 70.683594 392.664062 71.492188 C 392.433594 72.308594 391.792969 72.949219 390.953125 73.203125 C 389.558594 73.628906 387.574219 74.03125 385.089844 74.03125 "/></g></g><path style=" stroke:none;fill-rule:nonzero;fill:#ffffff;fill-opacity:1;" d="M 377.285156 235.789062 C 375.488281 235.773438 374.042969 234.304688 374.054688 232.503906 L 374.253906 210.09375 C 374.269531 208.296875 375.738281 206.851562 377.539062 206.867188 L 439.304688 207.410156 C 441.105469 207.425781 442.546875 208.898438 442.535156 210.695312 L 442.335938 233.101562 C 442.320312 234.902344 440.851562 236.347656 439.054688 236.332031 L 427.125 236.226562 L 422.933594 243.808594 L 418.65625 236.152344 L 377.285156 235.789062 "/><path style=" stroke:none;fill-rule:nonzero;fill:#000000;fill-opacity:1;" d="M 377.507812 207.476562 C 376.058594 207.476562 374.875 208.648438 374.863281 210.101562 L 374.664062 232.511719 C 374.652344 233.972656 375.828125 235.167969 377.289062 235.183594 L 418.660156 235.542969 C 418.882812 235.546875 419.085938 235.667969 419.191406 235.867188 L 422.878906 242.746094 L 426.324219 235.949219 C 426.429688 235.742188 426.636719 235.613281 426.871094 235.617188 L 439.058594 235.722656 C 439.066406 235.722656 439.074219 235.722656 439.082031 235.722656 C 439.78125 235.722656 440.4375 235.453125 440.933594 234.964844 C 441.4375 234.46875 441.71875 233.804688 441.726562 233.097656 L 441.921875 210.691406 C 441.929688 209.984375 441.660156 209.3125 441.164062 208.8125 C 440.667969 208.304688 440.007812 208.023438 439.300781 208.019531 L 377.53125 207.476562 C 377.523438 207.476562 377.515625 207.476562 377.507812 207.476562 Z M 422.894531 244.671875 C 422.667969 244.671875 422.464844 244.546875 422.355469 244.347656 L 418.289062 236.757812 L 377.277344 236.398438 C 375.148438 236.378906 373.429688 234.632812 373.449219 232.5 L 373.644531 210.089844 C 373.664062 207.972656 375.394531 206.261719 377.507812 206.261719 C 377.519531 206.261719 377.53125 206.261719 377.542969 206.261719 L 439.3125 206.800781 C 440.34375 206.8125 441.308594 207.222656 442.035156 207.957031 C 442.757812 208.691406 443.148438 209.667969 443.140625 210.699219 L 442.945312 233.109375 C 442.933594 234.140625 442.523438 235.109375 441.789062 235.832031 C 441.054688 236.558594 440.074219 236.945312 439.046875 236.941406 L 427.238281 236.839844 L 423.4375 244.335938 C 423.335938 244.539062 423.125 244.667969 422.902344 244.671875 C 422.898438 244.671875 422.894531 244.671875 422.894531 244.671875 "/><path style=" stroke:none;fill-rule:nonzero;fill:#ffffff;fill-opacity:1;" d="M 432.226562 225.605469 L 383.136719 225.171875 L 432.226562 225.605469 "/><path style=" stroke:none;fill-rule:nonzero;fill:#000000;fill-opacity:1;" d="M 432.226562 226.214844 C 432.222656 226.214844 432.222656 226.214844 432.222656 226.214844 L 383.132812 225.78125 C 382.792969 225.78125 382.527344 225.503906 382.527344 225.167969 C 382.53125 224.832031 382.804688 224.566406 383.136719 224.566406 C 383.136719 224.566406 383.140625 224.566406 383.140625 224.566406 L 432.230469 224.996094 C 432.570312 225 432.835938 225.273438 432.835938 225.609375 C 432.832031 225.941406 432.558594 226.214844 432.226562 226.214844 "/><path style=" stroke:none;fill-rule:nonzero;fill:#ffffff;fill-opacity:1;" d="M 393.457031 218.703125 L 383.195312 218.613281 L 393.457031 218.703125 "/><path style=" stroke:none;fill-rule:nonzero;fill:#000000;fill-opacity:1;" d="M 393.460938 219.3125 C 393.460938 219.3125 393.457031 219.3125 393.457031 219.3125 L 383.191406 219.21875 C 382.855469 219.21875 382.585938 218.945312 382.585938 218.605469 C 382.589844 218.269531 382.859375 218.011719 383.199219 218.003906 L 393.464844 218.09375 C 393.800781 218.097656 394.070312 218.371094 394.070312 218.707031 C 394.066406 219.042969 393.792969 219.3125 393.460938 219.3125 "/><path style=" stroke:none;fill-rule:nonzero;fill:#ffffff;fill-opacity:1;" d="M 432.28125 219.042969 L 400.015625 218.761719 L 432.28125 219.042969 "/><path style=" stroke:none;fill-rule:nonzero;fill:#000000;fill-opacity:1;" d="M 432.285156 219.652344 C 432.285156 219.652344 432.28125 219.652344 432.277344 219.652344 L 400.011719 219.367188 C 399.675781 219.363281 399.40625 219.089844 399.414062 218.753906 C 399.414062 218.417969 399.699219 218.15625 400.023438 218.152344 L 432.289062 218.433594 C 432.628906 218.4375 432.898438 218.710938 432.890625 219.046875 C 432.890625 219.382812 432.617188 219.652344 432.285156 219.652344 "/><path style=" stroke:none;fill-rule:nonzero;fill:#ffffff;fill-opacity:1;" d="M 409.855469 212.660156 C 411.652344 212.667969 413.117188 211.214844 413.125 209.417969 L 413.214844 187.007812 C 413.222656 185.207031 411.765625 183.746094 409.96875 183.738281 L 348.203125 183.492188 C 346.402344 183.484375 344.941406 184.933594 344.929688 186.734375 L 344.839844 209.144531 C 344.835938 210.941406 346.289062 212.40625 348.085938 212.414062 L 360.460938 212.460938 L 363.816406 218.625 L 368.101562 212.492188 L 409.855469 212.660156 "/><path style=" stroke:none;fill-rule:nonzero;fill:#000000;fill-opacity:1;" d="M 348.191406 184.097656 C 346.734375 184.097656 345.550781 185.277344 345.542969 186.734375 L 345.453125 209.144531 C 345.445312 210.605469 346.628906 211.796875 348.089844 211.804688 L 360.273438 211.855469 C 360.488281 211.855469 360.691406 211.96875 360.800781 212.160156 L 363.886719 217.527344 L 368 212.125 C 368.117188 211.976562 368.3125 211.894531 368.484375 211.886719 L 409.859375 212.050781 C 409.863281 212.050781 409.863281 212.050781 409.871094 212.050781 C 410.570312 212.050781 411.234375 211.78125 411.734375 211.285156 C 412.234375 210.785156 412.515625 210.121094 412.519531 209.414062 L 412.609375 187.003906 C 412.613281 185.546875 411.429688 184.351562 409.96875 184.347656 L 348.199219 184.097656 C 348.199219 184.097656 348.195312 184.097656 348.191406 184.097656 Z M 363.816406 219.230469 C 363.804688 219.230469 363.789062 219.230469 363.777344 219.230469 C 363.574219 219.214844 363.390625 219.101562 363.289062 218.925781 L 359.917969 213.066406 L 348.085938 213.019531 C 345.953125 213.011719 344.230469 211.269531 344.234375 209.140625 L 344.324219 186.730469 C 344.332031 184.601562 346.066406 182.878906 348.191406 182.878906 C 348.195312 182.878906 348.199219 182.878906 348.203125 182.878906 L 409.976562 183.128906 C 412.105469 183.136719 413.832031 184.878906 413.824219 187.007812 L 413.734375 209.417969 C 413.730469 210.453125 413.324219 211.421875 412.589844 212.148438 C 411.863281 212.871094 410.894531 213.269531 409.871094 213.269531 C 409.863281 213.269531 409.859375 213.269531 409.855469 213.269531 L 368.78125 213.105469 L 364.300781 218.992188 C 364.1875 219.140625 364.003906 219.230469 363.816406 219.230469 "/><path style=" stroke:none;fill-rule:nonzero;fill:#ffffff;fill-opacity:1;" d="M 355.046875 201.773438 L 404.136719 201.96875 L 355.046875 201.773438 "/><path style=" stroke:none;fill-rule:nonzero;fill:#000000;fill-opacity:1;" d="M 404.140625 202.578125 L 404.136719 202.578125 L 355.046875 202.378906 C 354.710938 202.378906 354.4375 202.105469 354.441406 201.769531 C 354.441406 201.433594 354.714844 201.164062 355.046875 201.164062 C 355.050781 201.164062 355.050781 201.164062 355.050781 201.164062 L 404.144531 201.363281 C 404.476562 201.363281 404.75 201.636719 404.75 201.972656 C 404.746094 202.308594 404.476562 202.578125 404.140625 202.578125 "/><path style=" stroke:none;fill-rule:nonzero;fill:#ffffff;fill-opacity:1;" d="M 393.902344 195.367188 L 404.164062 195.410156 L 393.902344 195.367188 "/><path style=" stroke:none;fill-rule:nonzero;fill:#000000;fill-opacity:1;" d="M 404.164062 196.019531 L 393.898438 195.976562 C 393.5625 195.972656 393.292969 195.703125 393.292969 195.367188 C 393.292969 195.03125 393.5625 194.761719 393.902344 194.761719 L 404.167969 194.800781 C 404.503906 194.804688 404.773438 195.078125 404.773438 195.414062 C 404.773438 195.746094 404.5 196.019531 404.164062 196.019531 "/><path style=" stroke:none;fill-rule:nonzero;fill:#ffffff;fill-opacity:1;" d="M 355.074219 195.210938 L 387.339844 195.34375 L 355.074219 195.210938 "/><path style=" stroke:none;fill-rule:nonzero;fill:#000000;fill-opacity:1;" d="M 387.34375 195.949219 L 387.339844 195.949219 L 355.074219 195.820312 C 354.738281 195.820312 354.46875 195.546875 354.46875 195.210938 C 354.46875 194.871094 354.730469 194.597656 355.078125 194.601562 L 387.34375 194.730469 C 387.679688 194.730469 387.953125 195.007812 387.949219 195.34375 C 387.949219 195.675781 387.675781 195.949219 387.34375 195.949219 "/></g></svg>